<mxfile host="Electron" modified="2023-06-22T06:25:17.825Z" agent="Mozilla/5.0 (Macintosh; Intel Mac OS X 10_15_7) AppleWebKit/537.36 (KHTML, like Gecko) draw.io/21.5.0 Chrome/112.0.5615.204 Electron/24.5.1 Safari/537.36" etag="LVtF13NbUQOVTgHGsXAZ" version="21.5.0" type="device">
  <diagram name="Page-1" id="w-7imWRVE0zth1ljHDjM">
    <mxGraphModel dx="415" dy="1049" grid="1" gridSize="10" guides="1" tooltips="1" connect="1" arrows="1" fold="1" page="1" pageScale="1" pageWidth="850" pageHeight="1100" math="0" shadow="0">
      <root>
        <mxCell id="0" />
        <mxCell id="1" parent="0" />
        <mxCell id="ljWrrpEJhds_tGvvsJWi-1" value="&lt;h1&gt;Troubleshooting and Debugging Python Issues&lt;/h1&gt;&lt;p&gt;1. Connectivity issues ( eg: Database Connectivity, API Connectivity, etc)&lt;/p&gt;&lt;p&gt;2. Compile Time Errors (Syntax Errors)&lt;/p&gt;&lt;p&gt;3. Run time Errors (Exceptions)&lt;/p&gt;&lt;p&gt;4. Bugs in Python Code&lt;/p&gt;&lt;p&gt;5. Performance Issues&lt;/p&gt;" style="text;html=1;strokeColor=none;fillColor=none;spacing=5;spacingTop=-20;whiteSpace=wrap;overflow=hidden;rounded=0;" vertex="1" parent="1">
          <mxGeometry x="220" y="50" width="410" height="210" as="geometry" />
        </mxCell>
        <mxCell id="ljWrrpEJhds_tGvvsJWi-2" value="&lt;div style=&quot;text-align: left;&quot;&gt;&lt;span style=&quot;background-color: initial;&quot;&gt;IP Addr (DNS Alias): retail.itversity.com&lt;/span&gt;&lt;/div&gt;&lt;div style=&quot;text-align: left;&quot;&gt;&lt;span style=&quot;background-color: initial;&quot;&gt;Port: 5432&lt;/span&gt;&lt;/div&gt;&lt;div style=&quot;text-align: left;&quot;&gt;&lt;span style=&quot;background-color: initial;&quot;&gt;Database Name: retail_db&lt;/span&gt;&lt;/div&gt;&lt;div style=&quot;text-align: left;&quot;&gt;&lt;span style=&quot;background-color: initial;&quot;&gt;Username: retail_user&lt;/span&gt;&lt;/div&gt;&lt;div style=&quot;text-align: left;&quot;&gt;&lt;span style=&quot;background-color: initial;&quot;&gt;Password: itversity&lt;/span&gt;&lt;/div&gt;" style="text;html=1;strokeColor=none;fillColor=none;align=center;verticalAlign=middle;whiteSpace=wrap;rounded=0;" vertex="1" parent="1">
          <mxGeometry x="50" y="280" width="220" height="100" as="geometry" />
        </mxCell>
        <mxCell id="ljWrrpEJhds_tGvvsJWi-13" value="" style="group" vertex="1" connectable="0" parent="1">
          <mxGeometry x="320" y="280" width="512.5" height="120" as="geometry" />
        </mxCell>
        <mxCell id="ljWrrpEJhds_tGvvsJWi-3" value="" style="rounded=0;whiteSpace=wrap;html=1;fillColor=none;" vertex="1" parent="ljWrrpEJhds_tGvvsJWi-13">
          <mxGeometry width="130" height="80" as="geometry" />
        </mxCell>
        <mxCell id="ljWrrpEJhds_tGvvsJWi-4" value="" style="html=1;dashed=0;whiteSpace=wrap;shape=mxgraph.dfd.start" vertex="1" parent="ljWrrpEJhds_tGvvsJWi-13">
          <mxGeometry x="25" y="25" width="80" height="30" as="geometry" />
        </mxCell>
        <mxCell id="ljWrrpEJhds_tGvvsJWi-5" value="psycopg2" style="text;html=1;strokeColor=none;fillColor=none;align=center;verticalAlign=middle;whiteSpace=wrap;rounded=0;" vertex="1" parent="ljWrrpEJhds_tGvvsJWi-13">
          <mxGeometry x="35" width="60" height="30" as="geometry" />
        </mxCell>
        <mxCell id="ljWrrpEJhds_tGvvsJWi-6" value="app.itersity.com&lt;br&gt;192.168.101.120" style="text;html=1;strokeColor=none;fillColor=none;align=center;verticalAlign=middle;whiteSpace=wrap;rounded=0;" vertex="1" parent="ljWrrpEJhds_tGvvsJWi-13">
          <mxGeometry x="35" y="80" width="60" height="30" as="geometry" />
        </mxCell>
        <mxCell id="ljWrrpEJhds_tGvvsJWi-7" value="" style="rounded=0;whiteSpace=wrap;html=1;fillColor=none;" vertex="1" parent="ljWrrpEJhds_tGvvsJWi-13">
          <mxGeometry x="350" width="130" height="80" as="geometry" />
        </mxCell>
        <mxCell id="ljWrrpEJhds_tGvvsJWi-8" value="" style="shape=cylinder3;whiteSpace=wrap;html=1;boundedLbl=1;backgroundOutline=1;size=15;" vertex="1" parent="ljWrrpEJhds_tGvvsJWi-13">
          <mxGeometry x="370" y="15" width="90" height="50" as="geometry" />
        </mxCell>
        <mxCell id="ljWrrpEJhds_tGvvsJWi-12" style="edgeStyle=orthogonalEdgeStyle;rounded=0;orthogonalLoop=1;jettySize=auto;html=1;exitX=1;exitY=0.5;exitDx=0;exitDy=0;exitPerimeter=0;entryX=0;entryY=0.5;entryDx=0;entryDy=0;entryPerimeter=0;" edge="1" parent="ljWrrpEJhds_tGvvsJWi-13" source="ljWrrpEJhds_tGvvsJWi-4" target="ljWrrpEJhds_tGvvsJWi-8">
          <mxGeometry relative="1" as="geometry" />
        </mxCell>
        <mxCell id="ljWrrpEJhds_tGvvsJWi-10" value="retail.itversity.com (postgres)&lt;br&gt;192.168.101.121" style="text;html=1;strokeColor=none;fillColor=none;align=center;verticalAlign=middle;whiteSpace=wrap;rounded=0;" vertex="1" parent="ljWrrpEJhds_tGvvsJWi-13">
          <mxGeometry x="317.5" y="90" width="195" height="30" as="geometry" />
        </mxCell>
        <mxCell id="ljWrrpEJhds_tGvvsJWi-14" value="&lt;div style=&quot;text-align: left;&quot;&gt;&lt;span style=&quot;background-color: initial;&quot;&gt;IP Addr (DNS Alias): localhost (127.0.0.1)&lt;/span&gt;&lt;/div&gt;&lt;div style=&quot;text-align: left;&quot;&gt;&lt;span style=&quot;background-color: initial;&quot;&gt;Port: 5432&lt;/span&gt;&lt;/div&gt;&lt;div style=&quot;text-align: left;&quot;&gt;&lt;span style=&quot;background-color: initial;&quot;&gt;Database Name: retail_db&lt;/span&gt;&lt;/div&gt;&lt;div style=&quot;text-align: left;&quot;&gt;&lt;span style=&quot;background-color: initial;&quot;&gt;Username: retail_user&lt;/span&gt;&lt;/div&gt;&lt;div style=&quot;text-align: left;&quot;&gt;&lt;span style=&quot;background-color: initial;&quot;&gt;Password: itversity&lt;/span&gt;&lt;/div&gt;" style="text;html=1;strokeColor=none;fillColor=none;align=center;verticalAlign=middle;whiteSpace=wrap;rounded=0;" vertex="1" parent="1">
          <mxGeometry x="44" y="460" width="250" height="100" as="geometry" />
        </mxCell>
        <mxCell id="ljWrrpEJhds_tGvvsJWi-16" value="" style="html=1;dashed=0;whiteSpace=wrap;" vertex="1" parent="1">
          <mxGeometry x="320" y="440" width="480" height="190" as="geometry" />
        </mxCell>
        <mxCell id="ljWrrpEJhds_tGvvsJWi-39" style="edgeStyle=orthogonalEdgeStyle;rounded=0;orthogonalLoop=1;jettySize=auto;html=1;exitX=1;exitY=0.5;exitDx=0;exitDy=0;exitPerimeter=0;" edge="1" parent="1" source="ljWrrpEJhds_tGvvsJWi-17" target="ljWrrpEJhds_tGvvsJWi-27">
          <mxGeometry relative="1" as="geometry" />
        </mxCell>
        <mxCell id="ljWrrpEJhds_tGvvsJWi-17" value="" style="html=1;dashed=0;whiteSpace=wrap;shape=mxgraph.dfd.start" vertex="1" parent="1">
          <mxGeometry x="380" y="510" width="120" height="50" as="geometry" />
        </mxCell>
        <mxCell id="ljWrrpEJhds_tGvvsJWi-27" value="" style="shape=cylinder3;whiteSpace=wrap;html=1;boundedLbl=1;backgroundOutline=1;size=15;" vertex="1" parent="1">
          <mxGeometry x="630" y="495" width="130" height="80" as="geometry" />
        </mxCell>
        <mxCell id="ljWrrpEJhds_tGvvsJWi-29" value="psycopg2" style="text;html=1;strokeColor=none;fillColor=none;align=center;verticalAlign=middle;whiteSpace=wrap;rounded=0;" vertex="1" parent="1">
          <mxGeometry x="410" y="470" width="60" height="30" as="geometry" />
        </mxCell>
        <mxCell id="ljWrrpEJhds_tGvvsJWi-30" value="Windows or Mac" style="text;html=1;strokeColor=none;fillColor=none;align=center;verticalAlign=middle;whiteSpace=wrap;rounded=0;" vertex="1" parent="1">
          <mxGeometry x="510" y="400" width="100" height="30" as="geometry" />
        </mxCell>
        <mxCell id="ljWrrpEJhds_tGvvsJWi-31" value="" style="html=1;dashed=0;whiteSpace=wrap;" vertex="1" parent="1">
          <mxGeometry x="185" y="680" width="480" height="190" as="geometry" />
        </mxCell>
        <mxCell id="ljWrrpEJhds_tGvvsJWi-32" value="Pandas" style="text;html=1;strokeColor=none;fillColor=none;align=center;verticalAlign=middle;whiteSpace=wrap;rounded=0;" vertex="1" parent="1">
          <mxGeometry x="200" y="760" width="60" height="30" as="geometry" />
        </mxCell>
        <mxCell id="ljWrrpEJhds_tGvvsJWi-33" value="&lt;b&gt;Pandas Connecting to Database&lt;/b&gt;" style="text;html=1;strokeColor=none;fillColor=none;align=center;verticalAlign=middle;whiteSpace=wrap;rounded=0;" vertex="1" parent="1">
          <mxGeometry x="325" y="700" width="200" height="30" as="geometry" />
        </mxCell>
        <mxCell id="ljWrrpEJhds_tGvvsJWi-34" value="SQL Alchemy (ORM)" style="text;html=1;strokeColor=none;fillColor=none;align=center;verticalAlign=middle;whiteSpace=wrap;rounded=0;" vertex="1" parent="1">
          <mxGeometry x="294" y="760" width="116" height="30" as="geometry" />
        </mxCell>
        <mxCell id="ljWrrpEJhds_tGvvsJWi-35" value="Psycopg2" style="text;html=1;strokeColor=none;fillColor=none;align=center;verticalAlign=middle;whiteSpace=wrap;rounded=0;" vertex="1" parent="1">
          <mxGeometry x="430" y="760" width="116" height="30" as="geometry" />
        </mxCell>
        <mxCell id="ljWrrpEJhds_tGvvsJWi-37" value="" style="shape=cylinder3;whiteSpace=wrap;html=1;boundedLbl=1;backgroundOutline=1;size=15;" vertex="1" parent="1">
          <mxGeometry x="578" y="735" width="60" height="80" as="geometry" />
        </mxCell>
        <mxCell id="ljWrrpEJhds_tGvvsJWi-38" value="postgresql://retail_user:itversity@retail.itversity.com:5432/retail_db" style="text;html=1;strokeColor=none;fillColor=none;align=center;verticalAlign=middle;whiteSpace=wrap;rounded=0;" vertex="1" parent="1">
          <mxGeometry x="330" y="815" width="220" height="30" as="geometry" />
        </mxCell>
        <mxCell id="ljWrrpEJhds_tGvvsJWi-40" value="&lt;h1&gt;Software Development&lt;/h1&gt;&lt;p&gt;1. Requirements&lt;/p&gt;&lt;p&gt;2. Design&lt;/p&gt;&lt;p&gt;3. Development&lt;/p&gt;&lt;p&gt;4. Testing (QA)&lt;/p&gt;&lt;p&gt;5. Production&lt;/p&gt;" style="text;html=1;strokeColor=none;fillColor=none;spacing=5;spacingTop=-20;whiteSpace=wrap;overflow=hidden;rounded=0;" vertex="1" parent="1">
          <mxGeometry x="50" y="900" width="287" height="180" as="geometry" />
        </mxCell>
      </root>
    </mxGraphModel>
  </diagram>
</mxfile>
